<?xml version="1.0" encoding="iso-8859-1"?>
<!-- Generator: Adobe Illustrator 19.0.0, SVG Export Plug-In . SVG Version: 6.00 Build 0)  -->
<svg version="1.1" id="Capa_1" xmlns="http://www.w3.org/2000/svg" xmlns:xlink="http://www.w3.org/1999/xlink" x="0px" y="0px"
	 viewBox="0 0 512 512" style="enable-background:new 0 0 512 512;" xml:space="preserve">
<g>
	<g>
		<path d="M512,185.996c0-45.406-27.657-87.599-77.877-118.807C386.187,37.401,322.929,20.996,256,20.996
			S125.813,37.401,77.877,67.189C27.657,98.397,0,140.59,0,185.996c0,39.87,22.141,77.859,62.627,108.036
			C61.574,297.844,61,301.853,61,305.996c0,24.813,20.187,45,45,45c0.653,0,1.301-0.021,1.947-0.049
			c5.769,35.533-9.664,72.166-40.268,92.568l16.642,24.961c22.729-15.153,39.4-36.794,48.211-62.585
			c7.308-21.389,8.54-44.648,3.704-66.595c1.9-1.727,3.643-3.621,5.225-5.646c23.929,7.735,49.367,12.916,75.921,15.483
			l-9.827,141.871l115.837-122.345l168.484,19.246l-72.518-74.828C477.769,281.83,512,235.398,512,185.996z M106,320.996
			c-8.271,0-15-6.729-15-15s6.729-15,15-15s15,6.729,15,15S114.271,320.996,106,320.996z M219.457,319.189
			c-23.995-2.374-46.936-7.055-68.477-13.994c-0.43-24.443-20.435-44.199-44.98-44.199c-9.763,0-18.803,3.135-26.186,8.438
			C47.593,245.178,30,215.876,30,185.996c0-34.651,22.626-67.794,63.711-93.326C136.958,65.796,194.593,50.996,256,50.996
			s119.042,14.8,162.289,41.674C459.374,118.201,482,151.345,482,185.996c0,40.014-31.367,78.567-84.471,104.556L233.187,120.974
			L219.457,319.189z M311.909,337.152l-68.647,72.504l15.204-219.49l153.527,158.418L311.909,337.152z"/>
	</g>
</g>
<g>
</g>
<g>
</g>
<g>
</g>
<g>
</g>
<g>
</g>
<g>
</g>
<g>
</g>
<g>
</g>
<g>
</g>
<g>
</g>
<g>
</g>
<g>
</g>
<g>
</g>
<g>
</g>
<g>
</g>
</svg>
